PathFileType	4	(X/Y/Z)	/Users/bjf5/Files/Research/NMSM Pipeline/Training Material/UF Subject 3/GaitTrial48_markers.trc
DataRate	CameraRate	NumFrames	NumMarkers	Units	OrigDataRate	OrigDataStartFrame	OrigNumFrames
100	100	5	33	m	100	94	6000
Frame#	Time	L_Midfoot_Superior			Neck			L_Toe			R_Toe			R_Heel			L_Heel			R_Elbow			R_Shoulder			L_Shank_Superior			L_Shoulder			R_Shank_Lateral			L_Patella			R_Midfoot_Lateral			R_Wrist			L_Shank_Inferior			L_Thigh_Inferior			L_Elbow			L_Wrist			L_Thigh_Superior			R_Midfoot_Superior			L_Thigh_Lateral			L_Shank_Lateral			R_Shank_Superior			Sternum			L_Midfoot_Lateral			R_Thigh_Superior			R_Thigh_Lateral			L_Asis			R_Shank_Inferior			R_Patella			R_Thigh_Inferior			R_Asis			Sacral
		X1	Y1	Z1	X2	Y2	Z2	X3	Y3	Z3	X4	Y4	Z4	X5	Y5	Z5	X6	Y6	Z6	X7	Y7	Z7	X8	Y8	Z8	X9	Y9	Z9	X10	Y10	Z10	X11	Y11	Z11	X12	Y12	Z12	X13	Y13	Z13	X14	Y14	Z14	X15	Y15	Z15	X16	Y16	Z16	X17	Y17	Z17	X18	Y18	Z18	X19	Y19	Z19	X20	Y20	Z20	X21	Y21	Z21	X22	Y22	Z22	X23	Y23	Z23	X24	Y24	Z24	X25	Y25	Z25	X26	Y26	Z26	X27	Y27	Z27	X28	Y28	Z28	X29	Y29	Z29	X30	Y30	Z30	X31	Y31	Z31	X32	Y32	Z32	X33	Y33	Z33

95	   0.940	    0.41354855300000	    0.09300213600000	   -0.53788793900000	    0.47241583300000	    1.46979834000000	   -0.55561346400000	    0.40686334200000	    0.03709085500000	   -0.64905029300000	    0.54482824700000	    0.05232259800000	   -0.86057733200000	    0.52594720500000	    0.12804176300000	   -0.57518603500000	    0.44560452300000	    0.06135610200000	   -0.36103390500000	    0.72119873000000	    1.08088110400000	   -0.51907605000000	    0.63773584000000	    1.42284130900000	   -0.59867431600000	    0.36724816900000	    0.38337170400000	   -0.58425030500000	    0.32485266100000	    1.44368481400000	   -0.63596728500000	    0.62694934100000	    0.40952554300000	   -0.73334277300000	    0.38000814800000	    0.48528012100000	   -0.64715094000000	    0.58653131100000	    0.09772150400000	   -0.65543859900000	    0.75855889900000	    0.83248962400000	   -0.56139495800000	    0.39430419900000	    0.23650827000000	   -0.53268719500000	    0.35911077900000	    0.60561303700000	   -0.67854003900000	    0.18879087800000	    1.11514428700000	   -0.61025842300000	    0.18332844500000	    0.93096234100000	   -0.79568383800000	    0.34101080300000	    0.73334143100000	   -0.70446533200000	    0.54008734100000	    0.12932287600000	   -0.75662768600000	    0.30322064200000	    0.66181579600000	   -0.60086846900000	    0.32648440600000	    0.34297399900000	   -0.48378640700000	    0.57343743900000	    0.42962237500000	   -0.82410260000000	    0.48533639500000	    1.37418139600000	   -0.70765277100000	    0.38229684400000	    0.04162778900000	   -0.43818771400000	    0.58999603300000	    0.77720813000000	   -0.78384838900000	    0.64262085000000	    0.68851611300000	   -0.73440069600000	    0.32977584800000	    0.96819970700000	   -0.67482775900000	    0.55649420200000	    0.26824914600000	   -0.75185968000000	    0.56452160600000	    0.55415417500000	   -0.87640838600000	    0.57268280000000	    0.67902563500000	   -0.83528979500000	    0.58644635000000	    0.97595867900000	   -0.66424346900000	    0.45721646100000	    0.99697943100000	   -0.49278064000000
96	   0.950	    0.41333874500000	    0.09301538800000	   -0.52459594700000	    0.47205163600000	    1.46929455600000	   -0.55568023700000	    0.40678634600000	    0.03702450600000	   -0.63494183300000	    0.54446502700000	    0.05706052400000	   -0.89394439700000	    0.52509130900000	    0.11276950100000	   -0.60399719200000	    0.44545971700000	    0.06343985400000	   -0.34744809000000	    0.71996447800000	    1.08139099100000	   -0.51445263700000	    0.63756402600000	    1.42237158200000	   -0.59823828100000	    0.36695550500000	    0.38374127200000	   -0.57308880600000	    0.32471170000000	    1.44312915000000	   -0.63625671400000	    0.62760180700000	    0.40468655400000	   -0.74180468800000	    0.37985488900000	    0.48434875500000	   -0.63683331300000	    0.58601849400000	    0.08810653700000	   -0.68633508300000	    0.75765246600000	    0.83241589400000	   -0.55245947300000	    0.39373306300000	    0.23730751000000	   -0.52050463900000	    0.35861819500000	    0.60419805900000	   -0.67116131600000	    0.18698892200000	    1.11490991200000	   -0.61327557400000	    0.18371922300000	    0.93586981200000	   -0.80379394500000	    0.34088253800000	    0.73171368400000	   -0.69950628700000	    0.53963043200000	    0.12650068700000	   -0.78481243900000	    0.30319519000000	    0.66189599600000	   -0.59462133800000	    0.32644220000000	    0.34431079100000	   -0.47221447800000	    0.57387335200000	    0.43113638300000	   -0.83056146200000	    0.48526724200000	    1.37340759300000	   -0.70743450900000	    0.38229626500000	    0.04271305500000	   -0.42444174200000	    0.58976470900000	    0.77797375500000	   -0.78348596200000	    0.64448150600000	    0.68993896500000	   -0.73581591800000	    0.32997515900000	    0.96720153800000	   -0.67344866900000	    0.55639971900000	    0.26502999900000	   -0.77027008100000	    0.56468676800000	    0.55606640600000	   -0.87613543700000	    0.57241387900000	    0.67991955600000	   -0.83518981900000	    0.58655047600000	    0.97560778800000	   -0.66351348900000	    0.45754602100000	    0.99629705800000	   -0.49202652000000
97	   0.960	    0.41275390600000	    0.09332866700000	   -0.51145910600000	    0.47180065900000	    1.46853479000000	   -0.55577703900000	    0.40672161900000	    0.03697129800000	   -0.62089831500000	    0.54407342500000	    0.06317865800000	   -0.92694268800000	    0.52431506300000	    0.09836943800000	   -0.63379931600000	    0.44557043500000	    0.06547127500000	   -0.33402542100000	    0.71898181200000	    1.08164831500000	   -0.51027114900000	    0.63737475600000	    1.42155676300000	   -0.59782104500000	    0.36679476900000	    0.38387066700000	   -0.56187530500000	    0.32461312900000	    1.44225451700000	   -0.63650946000000	    0.62798126200000	    0.39926855500000	   -0.74962255900000	    0.37951590000000	    0.48391809100000	   -0.62679522700000	    0.58520965600000	    0.07939322700000	   -0.71752935800000	    0.75688964800000	    0.83206762700000	   -0.54393139600000	    0.39398996000000	    0.23761038200000	   -0.50771890300000	    0.35815292400000	    0.60286615000000	   -0.66397479200000	    0.18526481600000	    1.11441027800000	   -0.61627508500000	    0.18419619800000	    0.94049426300000	   -0.81153710900000	    0.34083999600000	    0.72988391100000	   -0.69461456300000	    0.53923394800000	    0.12476197800000	   -0.81314892600000	    0.30336575300000	    0.66162933300000	   -0.58835253900000	    0.32641772500000	    0.34567828400000	   -0.46052011100000	    0.57443963600000	    0.43231863400000	   -0.83600726300000	    0.48521615600000	    1.37236608900000	   -0.70727789300000	    0.38222229000000	    0.04388378900000	   -0.41074182100000	    0.58960302700000	    0.77768115200000	   -0.78277661100000	    0.64508715800000	    0.68982550000000	   -0.73585278300000	    0.33013833600000	    0.96591308600000	   -0.67219073500000	    0.55633703600000	    0.26218722500000	   -0.78844036900000	    0.56482342500000	    0.55683593800000	   -0.87488659700000	    0.57227880900000	    0.67968988000000	   -0.83453692600000	    0.58674414100000	    0.97500006100000	   -0.66294055200000	    0.45784155300000	    0.99565466300000	   -0.49147396900000
98	   0.970	    0.41241186500000	    0.09350076300000	   -0.49815466300000	    0.47154794300000	    1.46750061000000	   -0.55593481400000	    0.40632910200000	    0.03737680100000	   -0.60703460700000	    0.54363867200000	    0.07108954600000	   -0.95914959700000	    0.52375915500000	    0.08515624200000	   -0.66424877900000	    0.44531628400000	    0.06752856400000	   -0.32049127200000	    0.71814544700000	    1.08168176300000	   -0.50638937400000	    0.63723437500000	    1.42056213400000	   -0.59755584700000	    0.36698941000000	    0.38370053100000	   -0.55036016800000	    0.32454379300000	    1.44108508300000	   -0.63668499800000	    0.62854547100000	    0.39372552500000	   -0.75714257800000	    0.37944509900000	    0.48337924200000	   -0.61678295900000	    0.58457580600000	    0.07202713000000	   -0.74906250000000	    0.75637500000000	    0.83166961700000	   -0.53617779500000	    0.39346646100000	    0.23827030900000	   -0.49574847400000	    0.35785922200000	    0.60151324500000	   -0.65677081300000	    0.18366043100000	    1.11365332000000	   -0.61921948200000	    0.18473274200000	    0.94480627400000	   -0.81895147700000	    0.34085040300000	    0.72780877700000	   -0.68964440900000	    0.53886853000000	    0.12446807100000	   -0.84136047400000	    0.30347433500000	    0.66135778800000	   -0.58219476300000	    0.32639938400000	    0.34723504600000	   -0.44887835700000	    0.57491003400000	    0.43314868200000	   -0.84061889600000	    0.48515994300000	    1.37108300800000	   -0.70718450900000	    0.38206607100000	    0.04510839500000	   -0.39708627300000	    0.58951770000000	    0.77631414800000	   -0.78175329600000	    0.64565960700000	    0.68870642100000	   -0.73495452900000	    0.33057946800000	    0.96444897500000	   -0.67124200400000	    0.55612286400000	    0.25981994600000	   -0.80625207500000	    0.56490692100000	    0.55629528800000	   -0.87276654100000	    0.57213739000000	    0.67800140400000	   -0.83307128900000	    0.58702050800000	    0.97418255600000	   -0.66256109600000	    0.45833169600000	    0.99449060100000	   -0.49079129000000
99	   0.980	    0.41200878900000	    0.09362775400000	   -0.48486969000000	    0.47129141200000	    1.46613073700000	   -0.55618231200000	    0.40626782200000	    0.03732125900000	   -0.59292486600000	    0.54297888200000	    0.08107291400000	   -0.99011431900000	    0.52337451200000	    0.07331824500000	   -0.69513165300000	    0.44511334200000	    0.06961379200000	   -0.30695471200000	    0.71752868700000	    1.08147839400000	   -0.50277200300000	    0.63714440900000	    1.41925146500000	   -0.59738220200000	    0.36663067600000	    0.38412661700000	   -0.53951873800000	    0.32452450600000	    1.43966455100000	   -0.63689898700000	    0.62908648700000	    0.38795724500000	   -0.76442559800000	    0.37974511700000	    0.48227285800000	   -0.60676416000000	    0.58431597900000	    0.06642604800000	   -0.78068939200000	    0.75618121300000	    0.83117559800000	   -0.52906439200000	    0.39308236700000	    0.23882366900000	   -0.48364105200000	    0.35792382800000	    0.60004180900000	   -0.64962115500000	    0.18217445400000	    1.11258142100000	   -0.62214770500000	    0.18529086300000	    0.94877331500000	   -0.82598101800000	    0.34114907800000	    0.72568243400000	   -0.68482470700000	    0.53856695600000	    0.12539498100000	   -0.86860046400000	    0.30345846600000	    0.66093811000000	   -0.57609741200000	    0.32635144000000	    0.34887844800000	   -0.43741195700000	    0.57524542200000	    0.43351403800000	   -0.84461853000000	    0.48511334200000	    1.36953125000000	   -0.70717272900000	    0.38200955200000	    0.04620902300000	   -0.38333123800000	    0.58953381300000	    0.77372082500000	   -0.78038147000000	    0.64608404500000	    0.68636737100000	   -0.73327771000000	    0.33151684600000	    0.96295446800000	   -0.67106512500000	    0.55614697300000	    0.25810723900000	   -0.82345880100000	    0.56480499300000	    0.55459948700000	   -0.86988189700000	    0.57226178000000	    0.67504229700000	   -0.83102502400000	    0.58738488800000	    0.97297497600000	   -0.66227893100000	    0.46009225500000	    0.99252441400000	   -0.49065371700000
